<svg width="95" height="41" viewBox="0 0 95 41" fill="none" xmlns="http://www.w3.org/2000/svg">
<mask id="path-1-inside-1_25_688" fill="white">
<path d="M0 0L47.5 41L95 0"/>
</mask>
<path d="M1.96024 -2.27101C0.705995 -3.35362 -1.1884 -3.21448 -2.27101 -1.96024C-3.35362 -0.705995 -3.21448 1.1884 -1.96024 2.27101L1.96024 -2.27101ZM47.5 41L45.5398 43.271C46.6659 44.243 48.3341 44.243 49.4602 43.271L47.5 41ZM96.9602 2.27101C98.2145 1.1884 98.3536 -0.705995 97.271 -1.96024C96.1884 -3.21448 94.294 -3.35362 93.0398 -2.27101L96.9602 2.27101ZM-1.96024 2.27101L45.5398 43.271L49.4602 38.729L1.96024 -2.27101L-1.96024 2.27101ZM49.4602 43.271L96.9602 2.27101L93.0398 -2.27101L45.5398 38.729L49.4602 43.271Z" fill="white" mask="url(#path-1-inside-1_25_688)"/>
</svg>
