<svg width="22" height="22" viewBox="0 0 22 22" fill="none" xmlns="http://www.w3.org/2000/svg">
<path d="M1.73497 11.6275L1.02146 11.6748L1.73569 11.6275H1.73497ZM17.7227 18.4649C17.7961 18.4031 17.8563 18.3272 17.8997 18.2416C17.9432 18.1561 17.969 18.0627 17.9756 17.9669C17.9822 17.8712 17.9695 17.7752 17.9382 17.6845C17.907 17.5937 17.8578 17.5103 17.7936 17.4389C17.7295 17.3676 17.6516 17.3099 17.5647 17.2693C17.4778 17.2287 17.3836 17.2059 17.2877 17.2024C17.1918 17.1989 17.0962 17.2147 17.0066 17.2489C16.917 17.2831 16.8351 17.335 16.7659 17.4014L17.7227 18.4649ZM15.3131 7.08311C15.3131 6.8933 15.2377 6.71127 15.1035 6.57706C14.9693 6.44285 14.7873 6.36745 14.5975 6.36745C14.4077 6.36745 14.2256 6.44285 14.0914 6.57706C13.9572 6.71127 13.8818 6.8933 13.8818 7.08311H15.3131ZM13.8818 11.0192C13.8818 11.9682 13.5048 12.8784 12.8338 13.5494C12.1627 14.2205 11.2525 14.5975 10.3035 14.5975V16.0288C11.6322 16.0288 12.9064 15.501 13.8458 14.5615C14.7853 13.6221 15.3131 12.3478 15.3131 11.0192H13.8818ZM10.3035 14.5975C9.35451 14.5975 8.44436 14.2205 7.7733 13.5494C7.10224 12.8784 6.72524 11.9682 6.72524 11.0192H5.29393C5.29393 12.3478 5.82173 13.6221 6.76121 14.5615C7.70069 15.501 8.9749 16.0288 10.3035 16.0288V14.5975ZM6.72524 11.0192C6.72524 10.0702 7.10224 9.16005 7.7733 8.48899C8.44436 7.81793 9.35451 7.44093 10.3035 7.44093V6.00962C8.9749 6.00962 7.70069 6.53742 6.76121 7.4769C5.82173 8.41638 5.29393 9.69059 5.29393 11.0192H6.72524ZM10.3035 7.44093C11.2525 7.44093 12.1627 7.81793 12.8338 8.48899C13.5048 9.16005 13.8818 10.0702 13.8818 11.0192H15.3131C15.3131 9.69059 14.7853 8.41638 13.8458 7.4769C12.9064 6.53742 11.6322 6.00962 10.3035 6.00962V7.44093ZM20.7929 8.81428C20.2669 6.39107 18.7697 4.18899 16.6943 2.76197L15.8835 3.94209C17.6662 5.16729 18.9472 7.05949 19.3938 9.11772L20.7929 8.81428ZM16.6943 2.76197C14.6165 1.33398 12.0766 0.741875 9.58143 1.1038L9.78682 2.5208C11.9255 2.2106 14.1025 2.71812 15.8835 3.94209L16.6943 2.76197ZM9.58071 1.1038C7.08588 1.46583 4.81922 2.75433 3.23284 4.71357L4.34497 5.61458C5.70496 3.93513 7.64813 2.83086 9.78682 2.5208L9.58143 1.1038H9.58071ZM3.23284 4.71357C1.64623 6.67286 0.856594 9.15901 1.02146 11.6748L2.44991 11.581C2.3084 9.4246 2.98509 7.29411 4.34497 5.61458L3.23284 4.71357ZM1.02146 11.6748C1.18627 14.1906 2.29355 16.5519 4.1224 18.2874L5.10786 17.249C3.54028 15.7614 2.59118 13.7375 2.44991 11.581L1.02146 11.6748ZM4.1224 18.2874C5.95131 20.0228 8.36724 21.0049 10.8882 21.0377L10.9068 19.6064C8.74609 19.5782 6.67542 18.7364 5.10786 17.249L4.1224 18.2874ZM10.8882 21.0377C13.4089 21.0705 15.8494 20.1518 17.7227 18.4649L16.7659 17.4014C15.1599 18.8474 13.0677 19.6348 10.9068 19.6064L10.8882 21.0377ZM13.8818 7.08311V13.5441H15.3131V7.08311H13.8818ZM14.2081 14.5939C14.5946 15.1099 15.5128 16.0288 17.1023 16.0288V14.5975C16.7631 14.6039 16.4274 14.529 16.1231 14.3791C15.8188 14.2292 15.5548 14.0086 15.3532 13.7358L14.2081 14.5939ZM13.8818 13.5441C13.8818 13.8654 13.9534 14.2547 14.2081 14.5954L15.3532 13.7366C15.3417 13.7208 15.3131 13.6671 15.3131 13.5441H13.8818ZM17.1023 16.0288C18.0734 16.0288 18.8664 15.7139 19.4739 15.17C20.0679 14.6376 20.4429 13.9269 20.6712 13.1919C21.1235 11.7363 21.0541 10.0187 20.7929 8.81428L19.3938 9.11772C19.6185 10.1533 19.6643 11.6096 19.3043 12.7676C19.1269 13.3401 18.8635 13.7952 18.5193 14.103C18.1886 14.3993 17.7413 14.5975 17.1023 14.5975V16.0288Z" fill="#E8BD67"/>
<path d="M16.2886 3.35167L16.6943 2.76197M16.6943 2.76197C18.7697 4.18899 20.2669 6.39107 20.7929 8.81428M16.6943 2.76197L15.8835 3.94209M16.6943 2.76197C14.6165 1.33398 12.0766 0.741875 9.58143 1.1038M9.68448 1.8123L9.78682 2.5208M9.78682 2.5208L9.58143 1.1038M9.78682 2.5208C11.9255 2.2106 14.1025 2.71812 15.8835 3.94209M9.78682 2.5208C7.64813 2.83086 5.70496 3.93513 4.34497 5.61458M3.7889 5.16443L3.23284 4.71357M3.23284 4.71357C4.81922 2.75433 7.08588 1.46583 9.58071 1.1038H9.58143M3.23284 4.71357L4.34497 5.61458M3.23284 4.71357C1.64623 6.67286 0.856594 9.15901 1.02146 11.6748M1.02146 11.6748L1.73497 11.6275H1.73569L1.02146 11.6748ZM1.02146 11.6748L2.44991 11.581M1.02146 11.6748C1.18627 14.1906 2.29355 16.5519 4.1224 18.2874M17.7227 18.4649C17.7961 18.4031 17.8563 18.3272 17.8997 18.2416C17.9432 18.1561 17.969 18.0627 17.9756 17.9669C17.9822 17.8712 17.9695 17.7752 17.9382 17.6845C17.907 17.5937 17.8578 17.5103 17.7936 17.4389C17.7295 17.3676 17.6516 17.3099 17.5647 17.2693C17.4778 17.2287 17.3836 17.2059 17.2877 17.2024C17.1918 17.1989 17.0962 17.2147 17.0066 17.2489C16.917 17.2831 16.8351 17.335 16.7659 17.4014M17.7227 18.4649L16.7659 17.4014M17.7227 18.4649C15.8494 20.1518 13.4089 21.0705 10.8882 21.0377M16.7659 17.4014C15.1599 18.8474 13.0677 19.6348 10.9068 19.6064M15.3131 7.08311C15.3131 6.8933 15.2377 6.71127 15.1035 6.57706C14.9693 6.44285 14.7873 6.36745 14.5975 6.36745C14.4077 6.36745 14.2256 6.44285 14.0914 6.57706C13.9572 6.71127 13.8818 6.8933 13.8818 7.08311M15.3131 7.08311H13.8818M15.3131 7.08311V13.5441M13.8818 7.08311V13.5441M14.7807 14.1652L15.3532 13.7358M15.3532 13.7358C15.5548 14.0086 15.8188 14.2292 16.1231 14.3791C16.4274 14.529 16.7631 14.6039 17.1023 14.5975M15.3532 13.7358L14.2081 14.5939C14.5946 15.1099 15.5128 16.0288 17.1023 16.0288M17.1023 15.3132V16.0288M17.1023 16.0288V14.5975M17.1023 16.0288C18.0734 16.0288 18.8664 15.7139 19.4739 15.17C20.0679 14.6376 20.4429 13.9269 20.6712 13.1919C21.1235 11.7363 21.0541 10.0187 20.7929 8.81428M13.8818 11.0192C13.8818 11.9682 13.5048 12.8784 12.8338 13.5494C12.1627 14.2205 11.2525 14.5975 10.3035 14.5975M13.8818 11.0192H15.3131M13.8818 11.0192C13.8818 10.0702 13.5048 9.16005 12.8338 8.48899C12.1627 7.81793 11.2525 7.44093 10.3035 7.44093M10.3035 14.5975V16.0288M10.3035 14.5975C9.35451 14.5975 8.44436 14.2205 7.7733 13.5494C7.10224 12.8784 6.72524 11.9682 6.72524 11.0192M10.3035 16.0288C11.6322 16.0288 12.9064 15.501 13.8458 14.5615C14.7853 13.6221 15.3131 12.3478 15.3131 11.0192M10.3035 16.0288C8.9749 16.0288 7.70069 15.501 6.76121 14.5615C5.82173 13.6221 5.29393 12.3478 5.29393 11.0192M15.3131 11.0192C15.3131 9.69059 14.7853 8.41638 13.8458 7.4769C12.9064 6.53742 11.6322 6.00962 10.3035 6.00962M6.72524 11.0192H5.29393M6.72524 11.0192C6.72524 10.0702 7.10224 9.16005 7.7733 8.48899C8.44436 7.81793 9.35451 7.44093 10.3035 7.44093M5.29393 11.0192C5.29393 9.69059 5.82173 8.41638 6.76121 7.4769C7.70069 6.53742 8.9749 6.00962 10.3035 6.00962M10.3035 7.44093V6.00962M20.7929 8.81428L19.3938 9.11772M15.8835 3.94209C17.6662 5.16729 18.9472 7.05949 19.3938 9.11772M19.3938 9.11772C19.6185 10.1533 19.6643 11.6096 19.3043 12.7676C19.1269 13.3401 18.8635 13.7952 18.5193 14.103C18.1886 14.3993 17.7413 14.5975 17.1023 14.5975M4.34497 5.61458C2.98509 7.29411 2.3084 9.4246 2.44991 11.581M2.44991 11.581C2.59118 13.7375 3.54028 15.7614 5.10786 17.249M4.1224 18.2874L5.10786 17.249M4.1224 18.2874C5.95131 20.0228 8.36724 21.0049 10.8882 21.0377M5.10786 17.249C6.67542 18.7364 8.74609 19.5782 10.9068 19.6064M10.8882 21.0377L10.9068 19.6064M13.8818 13.5441H15.3131M13.8818 13.5441C13.8818 13.8654 13.9534 14.2547 14.2081 14.5954L15.3532 13.7366C15.3417 13.7208 15.3131 13.6671 15.3131 13.5441" stroke="#E8BD67" stroke-width="0.5"/>
</svg>
