<svg width="20" height="20" viewBox="0 0 20 20" fill="none" xmlns="http://www.w3.org/2000/svg">
<g id="&#208;&#160;&#208;&#181;&#208;&#182;&#208;&#184;&#208;&#188;_&#208;&#184;&#208;&#183;&#208;&#190;&#208;&#187;&#209;&#143;&#209;&#134;&#208;&#184;&#208;&#184;" clip-path="url(#clip0_1098_46)">
<path id="Vector" d="M9.99418 1.79803C12.6679 1.79803 12.9831 1.79801 14.0339 1.85639C14.6684 1.86352 15.2968 1.98208 15.8903 2.20665C16.3319 2.36235 16.7315 2.61809 17.0578 2.95388C17.3907 3.28255 17.646 3.68145 17.805 4.12142C18.0269 4.7157 18.1453 5.34358 18.1553 5.97783C18.1553 7.04029 18.1553 7.35551 18.1553 10.0292C18.1553 12.7029 18.1553 13.0064 18.1553 14.0689C18.1453 14.7031 18.0269 15.331 17.805 15.9253C17.646 16.3653 17.3907 16.7641 17.0578 17.0928C16.7315 17.4286 16.3319 17.6844 15.8903 17.84C15.2968 18.0646 14.6684 18.1832 14.0339 18.1903C12.9831 18.1903 12.6679 18.2487 9.99418 18.2487C7.32051 18.2487 7.01694 18.2487 5.95448 18.1903C5.32008 18.1818 4.69198 18.0632 4.09809 17.84C3.65592 17.6855 3.25607 17.4296 2.93055 17.0928C2.59376 16.7673 2.33785 16.3674 2.18332 15.9253C1.96148 15.331 1.84301 14.7031 1.83305 14.0689C1.83305 13.0064 1.83305 12.6912 1.83305 10.0292C1.83305 7.36719 1.83305 7.04029 1.83305 5.97783C1.84301 5.34358 1.96148 4.7157 2.18332 4.12142C2.33785 3.67926 2.59376 3.27941 2.93055 2.95388C3.25607 2.61709 3.65592 2.36119 4.09809 2.20665C4.69198 1.98346 5.32008 1.86495 5.95448 1.85639C7.01694 1.85639 7.33218 1.79803 9.99418 1.79803ZM9.99418 0C7.28548 0 6.94689 0 5.87275 0C5.04277 0.0181714 4.22179 0.176064 3.44427 0.467028C2.77728 0.720627 2.17507 1.11944 1.68128 1.63457C1.16615 2.12836 0.767332 2.73057 0.513733 3.39755C0.222769 4.17507 0.0648855 4.99606 0.0467141 5.82604C0.0467141 6.90018 -0.0116577 7.23876 -0.0116577 9.95914C-0.0116577 12.6795 -0.0116631 13.0064 0.0467141 14.0806C0.0648855 14.9105 0.222769 15.7315 0.513733 16.509C0.767332 17.176 1.16615 17.7783 1.68128 18.272C2.17507 18.7872 2.77728 19.186 3.44427 19.4396C4.22179 19.7306 5.04277 19.8884 5.87275 19.9066C6.94689 19.9066 7.28548 19.965 9.99418 19.965C12.7029 19.965 13.0531 19.965 14.1156 19.9066C14.9458 19.8909 15.7673 19.733 16.5441 19.4396C17.2146 19.1861 17.8206 18.7874 18.3188 18.272C18.8339 17.7783 19.2327 17.176 19.4863 16.509C19.7773 15.7315 19.9351 14.9105 19.9533 14.0806C19.9533 13.0064 20.0117 12.6678 20.0117 9.95914C20.0117 7.25044 20.0117 6.90018 19.9533 5.82604C19.9351 4.99606 19.7773 4.17507 19.4863 3.39755C19.2327 2.73057 18.8339 2.12836 18.3188 1.63457C17.8206 1.11921 17.2146 0.720492 16.5441 0.467028C15.7673 0.173657 14.9458 0.0156838 14.1156 0C13.0531 0 12.7146 0 9.99418 0Z" fill="#E8BD67"/>
<path id="Vector_2" d="M9.99418 4.85693C9.3201 4.85693 8.65264 4.9899 8.03002 5.24821C7.40741 5.50652 6.84186 5.8851 6.36576 6.36229C5.88965 6.83947 5.51236 7.40588 5.25546 8.02909C4.99857 8.65229 4.86713 9.32004 4.86867 9.99411C4.86867 11.3535 5.40867 12.6572 6.36989 13.6184C7.33111 14.5796 8.63481 15.1196 9.99418 15.1196C11.3546 15.1196 12.6595 14.58 13.6226 13.6191C14.5857 12.6582 15.1283 11.3546 15.1314 9.99411C15.1314 8.63165 14.5901 7.32499 13.6267 6.36158C12.6633 5.39817 11.3566 4.85693 9.99418 4.85693ZM9.99418 13.3216C9.11262 13.3185 8.26804 12.967 7.64468 12.3436C7.02132 11.7203 6.66975 10.8757 6.66667 9.99411C6.66667 9.11053 7.01687 8.26296 7.64056 7.63708C8.26426 7.0112 9.1106 6.65803 9.99418 6.65494C10.8798 6.65494 11.7291 7.00675 12.3553 7.63296C12.9815 8.25918 13.3333 9.10851 13.3333 9.99411C13.3303 10.8777 12.9771 11.724 12.3512 12.3477C11.7253 12.9714 10.8778 13.3216 9.99418 13.3216Z" fill="#E8BD67"/>
<path id="Vector_3" d="M16.5324 4.65851C16.5324 4.96816 16.4094 5.26513 16.1904 5.48409C15.9715 5.70304 15.6745 5.82605 15.3649 5.82605C15.0552 5.82605 14.7582 5.70304 14.5393 5.48409C14.3203 5.26513 14.1973 4.96816 14.1973 4.65851C14.1973 4.34886 14.3203 4.05189 14.5393 3.83293C14.7582 3.61397 15.0552 3.49097 15.3649 3.49097C15.6745 3.49097 15.9715 3.61397 16.1904 3.83293C16.4094 4.05189 16.5324 4.34886 16.5324 4.65851Z" fill="#E8BD67"/>
</g>
<defs>
<clipPath id="clip0_1098_46">
<rect width="20" height="20" fill="white"/>
</clipPath>
</defs>
</svg>
