<svg viewBox="0 0 46 37" xmlns="http://www.w3.org/2000/svg">
<g id="Group 279">
<path id="Vector" d="M46 17.6351C43.4507 17.6182 41.3516 19.7413 41.336 22.3533C41.3516 19.7401 39.2784 17.5903 36.7291 17.5734C39.2784 17.5903 41.3763 15.4659 41.392 12.8552C41.3763 15.4672 43.4473 17.6242 46 17.6351Z" stroke-width="0.5"/>
<path id="Vector_2" d="M40.9661 8.10782C41.336 7.66809 41.8019 7.33537 42.3214 7.13999C40.8317 5.41887 38.6572 3.97801 35.798 2.81742C34.2267 2.19375 32.6005 1.74502 30.9447 1.47819C29.2551 1.16069 27.5432 1.00081 25.8282 1.00032C24.2142 0.992264 22.6027 1.13596 21.0118 1.4298C19.2281 1.73172 17.4711 2.19592 15.7598 2.81742C14.0014 3.42732 12.2994 4.21263 10.6757 5.1632C9.07461 6.0898 7.57796 7.21307 6.21554 8.51068C4.8977 9.76598 3.76894 11.2353 2.86985 12.8659C1.9628 14.4924 1.36108 16.2958 1.09901 18.1733C1.03389 18.6483 1.00095 19.1278 1.00044 19.6081C0.989582 20.7211 1.17981 21.8256 1.56048 22.86C1.90889 23.7397 2.39671 24.547 3.00203 25.2457C3.56954 25.8514 4.12696 26.2179 4.6743 26.3454C4.84352 26.3787 5.01817 26.3447 5.16602 26.2498C5.34075 26.1546 5.42812 26.0433 5.42812 25.9159C5.42812 25.7546 5.29708 25.659 5.03498 25.6292C4.59815 25.5324 4.16093 25.2614 3.72335 24.8162C3.2758 24.284 2.92033 23.6694 2.67384 23.0015C2.40326 22.2225 2.26955 21.3958 2.27957 20.5638C2.27531 20.0974 2.31928 19.632 2.41062 19.1762C2.71623 16.9743 3.49115 14.8791 4.6743 13.0559C5.87039 11.2212 7.33214 9.60642 9.00343 8.27356C10.7345 6.90015 12.6052 5.74497 14.5792 4.83051C16.4936 3.93257 18.4809 3.22828 20.5156 2.72669C21.5968 2.46211 22.6921 2.27019 23.7952 2.15204C24.9489 2.02514 26.1078 1.96134 27.2675 1.96089C28.7865 1.95588 30.3029 2.0984 31.7982 2.38674C33.2857 2.64241 34.5869 3.07269 35.7017 3.67758C38.0322 4.95996 39.787 6.4367 40.9661 8.10782Z" stroke-width="0.5"/>
<g id="Vector_3">
<path d="M18.379 31.0732C19.3632 29.5755 20.3582 27.9177 21.3641 26.0998C22.3908 24.2513 23.3967 22.3704 24.3816 20.4574C25.3874 18.5451 26.3384 16.6961 27.2344 14.9105C28.1305 13.1248 28.9422 11.5291 29.6695 10.1234C29.8563 9.80887 29.9583 9.44442 29.9641 9.07084C29.9666 8.97954 29.9503 8.88877 29.9164 8.80508C29.8825 8.7214 29.8319 8.64689 29.7681 8.58693C29.656 8.42724 29.4511 8.34497 29.1442 8.34497H29.0131C28.7294 8.34497 28.3579 8.53652 27.8986 8.91962C27.4394 9.30272 26.9566 10.0266 26.4504 11.0912C25.5767 12.3332 24.6478 13.5765 23.6636 14.821C22.7159 16.0229 21.6967 17.1568 20.6125 18.2156C19.658 19.145 18.6137 19.9607 17.4975 20.6485C16.4484 21.2542 15.4317 21.5571 14.4476 21.5571C13.8128 21.5571 13.3753 21.3498 13.1348 20.9352C12.8944 20.5207 12.7962 19.963 12.8402 19.2621C12.9485 18.0184 13.2984 16.9663 13.8898 16.1058C14.4817 15.2703 15.1174 14.4721 15.7939 13.7152C15.86 13.6511 15.8488 13.587 15.7614 13.5229C15.6633 13.4563 15.549 13.423 15.4332 13.4273C15.3272 13.4191 15.222 13.4531 15.1375 13.5229C14.2624 14.513 13.5327 15.6419 12.9735 16.8703C12.4138 18.0556 12.0377 19.3319 11.8602 20.6485C11.793 21.2415 11.8962 21.8425 12.1559 22.37C12.418 22.8806 12.8552 23.1516 13.4675 23.183C14.3859 23.1516 15.381 22.833 16.4525 22.2273C17.5905 21.5402 18.6663 20.7394 19.666 19.8355C20.7713 18.8675 21.8227 17.8297 22.8146 16.7276C23.8428 15.6122 24.7613 14.5282 25.57 13.4757C25.4826 13.7628 25.3953 14.0818 25.3079 14.4326C25.2205 14.7835 25.1328 15.1339 25.0447 15.4839C24.7176 16.2501 24.3241 17.2385 23.8641 18.4491C23.4049 19.6291 22.8691 20.936 22.2568 22.37C21.6445 23.804 20.956 25.2558 20.1913 26.7253C19.4493 28.119 18.6031 29.4449 17.6611 30.6897C16.131 29.7969 14.6443 28.442 13.2009 26.6249C11.6919 24.7089 10.3316 22.6618 9.13389 20.5045C9.00246 20.2497 8.87141 20.1218 8.74074 20.121C8.58691 20.121 8.51037 20.3126 8.51111 20.6957C8.51823 20.9852 8.55124 21.2732 8.60968 21.5559C8.72117 21.946 8.85242 22.3293 9.00283 22.7039L9.13389 23.0862C8.97453 23.6624 8.87571 24.2561 8.8393 24.8561C8.77359 25.5893 8.74074 26.4023 8.74074 27.2951C8.74188 28.3653 8.79646 29.4347 8.90426 30.4986C9.00227 31.5166 9.17798 32.5242 9.42959 33.511C9.66929 34.4352 9.98627 35.1684 10.3805 35.7104C10.7733 36.2854 11.2542 36.5725 11.8232 36.5717C12.4572 36.5717 13.1348 36.3169 13.8561 35.8071C14.6193 35.2797 15.3322 34.6718 15.9843 33.9925C16.5813 33.4139 17.1401 32.7909 17.6566 32.1282M14.8732 33.7989C14.1519 34.5006 13.4959 34.8514 12.9052 34.8514C12.7832 34.8598 12.6609 34.8434 12.5445 34.803C11.7799 34.549 11.1788 33.9114 10.7412 32.8903C10.2795 31.8148 9.9699 30.6705 9.82274 29.4957C9.65659 28.3083 9.56899 27.1095 9.56063 25.9087V25.0957C9.58191 24.8404 9.60432 24.6021 9.6256 24.3783C10.6215 25.9764 11.7764 27.4519 13.0699 28.7783C14.2145 29.9279 15.495 30.9087 16.8781 31.6951C16.2521 32.4419 15.5824 33.1446 14.8732 33.7989Z" />
<path d="M18.379 31.0732C19.3632 29.5755 20.3582 27.9177 21.3641 26.0998C22.3908 24.2513 23.3967 22.3704 24.3816 20.4574C25.3874 18.5451 26.3384 16.6961 27.2344 14.9105C28.1305 13.1248 28.9422 11.5291 29.6695 10.1234C29.8563 9.80887 29.9583 9.44442 29.9641 9.07084C29.9666 8.97954 29.9503 8.88877 29.9164 8.80508C29.8825 8.7214 29.8319 8.64689 29.7681 8.58693C29.656 8.42724 29.4511 8.34497 29.1442 8.34497H29.0131C28.7294 8.34497 28.3579 8.53652 27.8986 8.91962C27.4394 9.30272 26.9566 10.0266 26.4504 11.0912C25.5767 12.3332 24.6478 13.5765 23.6636 14.821C22.7159 16.0229 21.6967 17.1568 20.6125 18.2156C19.658 19.145 18.6137 19.9607 17.4975 20.6485C16.4484 21.2542 15.4317 21.5571 14.4476 21.5571C13.8128 21.5571 13.3753 21.3498 13.1348 20.9352C12.8944 20.5207 12.7962 19.963 12.8402 19.2621C12.9485 18.0184 13.2984 16.9663 13.8898 16.1058C14.4817 15.2703 15.1174 14.4721 15.7939 13.7152C15.86 13.6511 15.8488 13.587 15.7614 13.5229C15.6633 13.4563 15.549 13.423 15.4332 13.4273C15.3272 13.4191 15.222 13.4531 15.1375 13.5229C14.2624 14.513 13.5327 15.6419 12.9735 16.8703C12.4138 18.0556 12.0377 19.3319 11.8602 20.6485C11.793 21.2415 11.8962 21.8425 12.1559 22.37C12.418 22.8806 12.8552 23.1516 13.4675 23.183C14.3859 23.1516 15.381 22.833 16.4525 22.2273C17.5905 21.5402 18.6663 20.7394 19.666 19.8355C20.7713 18.8675 21.8227 17.8297 22.8146 16.7276C23.8428 15.6122 24.7613 14.5282 25.57 13.4757C25.4826 13.7628 25.3953 14.0818 25.3079 14.4326C25.2205 14.7835 25.1328 15.1339 25.0447 15.4839C24.7176 16.2501 24.3241 17.2385 23.8641 18.4491C23.4049 19.6291 22.8691 20.936 22.2568 22.37C21.6445 23.804 20.956 25.2558 20.1913 26.7253C19.4493 28.119 18.6031 29.4449 17.6611 30.6897C16.131 29.7969 14.6443 28.442 13.2009 26.6249C11.6919 24.7089 10.3316 22.6619 9.13389 20.5045C9.00246 20.2497 8.87141 20.1218 8.74074 20.121C8.58691 20.121 8.51037 20.3126 8.51111 20.6957C8.51823 20.9852 8.55124 21.2732 8.60968 21.5558C8.72117 21.946 8.85242 22.3293 9.00283 22.7039L9.13389 23.0862C8.97453 23.6624 8.87571 24.2561 8.8393 24.8562C8.77359 25.5893 8.74074 26.4023 8.74074 27.2951C8.74188 28.3653 8.79646 29.4347 8.90426 30.4986C9.00227 31.5166 9.17798 32.5242 9.42959 33.511C9.66929 34.4352 9.98627 35.1684 10.3805 35.7104C10.7733 36.2854 11.2542 36.5725 11.8232 36.5717C12.4572 36.5717 13.1348 36.3169 13.8561 35.8071C14.6193 35.2797 15.3322 34.6718 15.9843 33.9925C16.5813 33.4139 17.1401 32.7909 17.6566 32.1282M14.8732 33.7989C14.1519 34.5006 13.4959 34.8514 12.9052 34.8514C12.7832 34.8598 12.6609 34.8434 12.5445 34.803C11.7799 34.549 11.1788 33.9114 10.7412 32.8903C10.2795 31.8148 9.9699 30.6705 9.82274 29.4957C9.65659 28.3083 9.56899 27.1095 9.56063 25.9087V25.0957C9.58191 24.8404 9.60432 24.6021 9.6256 24.3783C10.6215 25.9764 11.7764 27.4519 13.0699 28.7783C14.2145 29.9279 15.495 30.9087 16.8781 31.6951C16.2521 32.4419 15.5824 33.1446 14.8732 33.7989Z" stroke-width="0.5"/>
</g>
<path id="Vector_4" d="M39.2692 25.4136C38.1061 26.8864 36.7745 28.1938 35.3064 29.3043C33.7451 30.4559 32.046 31.3729 30.2559 32.0299C28.4843 32.6951 26.6219 33.0346 24.7462 33.034C23.8502 33.034 23.0123 33.155 22.1174 32.8876C21.5977 32.7836 21.1317 33.1417 21.5159 33.524C21.5871 33.5912 21.6725 33.6385 21.7646 33.6619C22.7711 33.9354 23.8071 34.062 24.8448 34.0381C26.9404 34.0418 29.0221 33.6702 31.0053 32.9385C32.9819 32.2551 34.8591 31.2731 36.581 30.0217C38.0124 28.9731 39.3314 27.7558 40.5136 26.3923C40.0257 26.1912 39.5962 25.8534 39.2692 25.4136Z" stroke-width="0.5"/>
</g>
</svg>
