<svg width="58" height="58" viewBox="0 0 58 58" fill="none" xmlns="http://www.w3.org/2000/svg">
<g id="Group 261">
<g id="Group 260">
<path id="Vector" d="M33.7756 42.6928C32.6465 43.829 31.2748 44.695 29.7634 45.2259C29.0194 45.5241 28.189 45.5241 27.445 45.2259C26.7273 44.8814 26.2033 44.0706 25.8013 42.7718C25.5442 41.8041 25.4044 40.8091 25.385 39.8081C25.3459 39.048 25.3459 38.2864 25.385 37.5262L26.1028 27.5375L26.2822 25.3847L26.6698 20.254H26.7201L26.9856 17.1541L24.7104 17.8716C19.5999 19.4503 16.5063 21.3447 15.1569 23.397C13.5994 25.7507 13.1831 25.6718 12.7166 28.4201C12.4341 29.6257 12.5174 30.8881 12.956 32.0461C13.3945 33.2041 14.1682 34.2051 15.1785 34.9214C15.5331 35.225 15.9357 35.4676 16.37 35.639L17.4395 32.008C17.3914 32.0879 17.3217 32.1525 17.2385 32.1946C16.975 32.3943 16.682 32.5517 16.37 32.661C15.875 32.837 15.3366 32.8496 14.834 32.6969C14.3674 32.5247 13.6281 30.2069 14.1808 28.2766C14.3967 27.338 14.8013 26.4532 15.3702 25.676C15.9391 24.8988 16.6602 24.2455 17.4897 23.7558C18.9066 22.8272 20.4585 22.1228 22.0905 21.6677L23.2892 21.3017L21.9757 38.9542C21.8684 40.2525 21.8301 41.5555 21.8608 42.8579C21.8776 43.8294 22.0224 44.7945 22.2915 45.7282C22.5233 46.6133 23.0467 47.3944 23.7772 47.9455C24.2439 48.2413 24.7738 48.4228 25.3238 48.4751C25.8738 48.5275 26.4285 48.4493 26.9426 48.2469C29.358 47.6148 31.482 46.1704 32.9574 44.1567" fill="black"/>
<path id="Vector_2" d="M40.7307 34.6492H40.4579L39.9053 35.1731C39.4502 35.6134 38.9265 35.9769 38.3549 36.2494C37.7577 36.4549 37.134 36.5733 36.5031 36.601C35.2214 36.7333 33.9334 36.419 32.8569 35.7112C32.5222 35.5281 32.2335 35.2715 32.0122 34.9608C31.7909 34.6501 31.6429 34.2933 31.5792 33.9173C31.5569 33.3625 31.6781 32.8114 31.931 32.3171C32.2096 31.6916 32.5904 31.1169 33.0578 30.6164L36.8907 26.397C38.118 25.0695 38.7568 24.3806 38.7999 24.316C39.0341 24.0494 39.1774 23.7151 39.209 23.3616C39.2033 23.1915 39.162 23.0244 39.0879 22.8712C39.0137 22.7179 38.9083 22.5819 38.7784 22.4718C38.7353 22.4718 38.4339 22.2637 37.8884 21.9552L32.6415 19.1997C32.3838 19.0924 32.1423 18.95 31.9238 18.7763C31.7926 18.6784 31.6829 18.5546 31.6015 18.4127C31.52 18.2708 31.4685 18.1137 31.45 17.9511C31.4112 17.5198 31.4704 17.0854 31.6233 16.6803C31.7762 16.2751 32.0188 15.9099 32.3329 15.6118V14.8296C31.4569 15.3252 30.6548 15.9411 29.9499 16.6594C29.5478 17.008 29.2237 17.4374 28.9986 17.9196C28.7735 18.4018 28.6526 18.926 28.6436 19.458C28.6814 19.8873 28.8435 20.2962 29.1101 20.6348C29.3169 20.9775 29.6054 21.2635 29.9499 21.4672L35.8212 24.6533C35.893 24.6964 35.9504 24.8183 36.0078 25.0192C36.0547 25.154 36.086 25.2936 36.1011 25.4355C36.1195 25.6858 36.062 25.9359 35.936 26.153C35.7989 26.4121 35.6301 26.6531 35.4336 26.8706L32.4621 30.2002C31.7443 30.9178 31.0911 31.6354 30.4165 32.3529C29.1053 33.7498 28.4761 34.8812 28.5287 35.7471C28.579 36.6082 29.2465 37.3976 30.5026 38.1008C31.7271 38.7986 33.13 39.1206 34.5364 39.0265L36.1729 38.8256L41.1183 34.9219C41.0537 34.7425 40.9388 34.6492 40.7307 34.6492Z" fill="black"/>
<path id="Vector_3" d="M44.3053 13.0568C44.3053 12.8128 44.011 12.6047 43.4727 12.4253C43.0577 12.2678 42.6174 12.1875 42.1735 12.1885C40.6438 12.2884 39.1231 12.497 37.623 12.8128C36.7978 13.0013 35.9852 13.241 35.1898 13.5304V14.1403L35.5199 14.047C36.2267 13.8746 36.9472 13.7641 37.6732 13.7169C38.8923 13.5532 40.1329 13.7244 41.262 14.2121C41.7362 14.5046 42.1095 14.9353 42.3315 15.4463H42.6042L44.2335 13.7815C44.2811 13.7082 44.3106 13.6245 44.3196 13.5375C44.3525 13.416 44.367 13.2902 44.3627 13.1644L44.3053 13.0568Z" fill="black"/>
<path id="Vector_4" d="M56.988 28.8082C57.1507 34.3473 55.6508 39.8081 52.6815 44.4874C49.5804 49.1282 45.1714 52.7444 40.013 54.878C37.4373 55.9102 34.7327 56.5861 31.9741 56.8872C29.21 57.1234 26.4266 56.9882 23.6984 56.4854C20.9828 55.9139 18.3579 54.9748 15.8963 53.694C10.969 51.0682 6.934 47.0367 4.30447 42.1122C3.02331 39.6512 2.08399 37.027 1.51242 34.3121C1.01299 31.5841 0.877833 28.8019 1.11048 26.0384C1.41162 23.2805 2.08776 20.5765 3.12019 18.0014C4.21525 15.454 5.64675 13.0647 7.3765 10.8974C9.16735 8.78066 11.2309 6.91062 13.5133 5.33609C15.8789 3.88442 18.4313 2.76184 21.1001 1.99934C23.7569 1.30698 26.4941 0.97154 29.2395 1.00189C26.5172 1.11987 23.8231 1.60257 21.2293 2.43705C18.6806 3.31352 16.2652 4.53781 14.0517 6.0752C9.52001 9.06298 5.97772 13.3287 3.87383 18.3315C2.87626 20.8294 2.22191 23.4509 1.92869 26.1245C1.70096 28.8043 1.83377 31.5025 2.32349 34.147C2.87466 36.7792 3.7826 39.3238 5.02223 41.7104C7.57665 46.4862 11.4909 50.397 16.2696 52.9477C18.6542 54.187 21.1971 55.0948 23.8275 55.6458C26.4751 56.1354 29.1764 56.2681 31.8593 56.0405C37.2469 55.5156 42.3564 53.3998 46.5375 49.9625C50.6911 46.4763 53.8194 41.9275 55.5884 36.8021C56.3992 34.2093 56.8696 31.5222 56.988 28.8082Z" fill="black" stroke="black"/>
<path id="Star 18" d="M28.2228 7.26636C28.2228 7.26636 28.1773 9.31127 28.9867 10.1486C29.8207 11.0114 31.9435 10.9862 31.9435 10.9862C31.9435 10.9862 29.8177 10.979 28.9867 11.8484C28.1884 12.6835 28.2228 14.706 28.2228 14.706C28.2228 14.706 28.2391 12.6807 27.4343 11.8484C26.6047 10.9905 24.5021 10.9862 24.5021 10.9862C24.5021 10.9862 26.4662 10.9337 27.2865 10.1486C28.1415 9.33018 28.2228 7.26636 28.2228 7.26636Z" fill="black"/>
</g>
</g>
</svg>
