<svg width="19" height="15" viewBox="0 0 19 15" fill="none" xmlns="http://www.w3.org/2000/svg">
<path d="M15.6513 1C16.9487 1 18 2.05132 18 3.34868V12.0724C18 13.3697 16.9487 14.4211 15.6513 14.4211H3.34868C2.72577 14.4211 2.12838 14.1736 1.68791 13.7331C1.24745 13.2927 1 12.6953 1 12.0724V3.34868C1 2.05132 2.05132 1 3.34868 1H15.6513ZM16.8816 5.18334L9.76932 9.09513C9.69614 9.13537 9.61488 9.1587 9.5315 9.16343C9.44813 9.16815 9.36475 9.15414 9.2875 9.12242L9.23068 9.09558L2.11842 5.1829V12.0724C2.11842 12.3987 2.24804 12.7116 2.47876 12.9423C2.70948 13.173 3.0224 13.3026 3.34868 13.3026H15.6513C15.9776 13.3026 16.2905 13.173 16.5212 12.9423C16.752 12.7116 16.8816 12.3987 16.8816 12.0724V5.18334ZM15.6513 2.11842H3.34868C3.0224 2.11842 2.70948 2.24804 2.47876 2.47876C2.24804 2.70948 2.11842 3.0224 2.11842 3.34868V3.90745L9.5 7.96687L16.8816 3.907V3.34868C16.8816 3.0224 16.752 2.70948 16.5212 2.47876C16.2905 2.24804 15.9776 2.11842 15.6513 2.11842Z" fill="#E8BD67" stroke="#E8BD67" stroke-width="0.5"/>
</svg>
