<svg width="19" height="24" viewBox="0 0 19 24" fill="none" xmlns="http://www.w3.org/2000/svg">
<path fill-rule="evenodd" clip-rule="evenodd" d="M9.22891 22.9986L10.0943 22.0235C11.0763 20.8989 11.9595 19.8319 12.7454 18.817L13.3941 17.9612C16.1028 14.3116 17.4578 11.4151 17.4578 9.27417C17.4578 4.70438 13.774 1 9.22891 1C4.68381 1 1 4.70438 1 9.27417C1 11.4151 2.35503 14.3116 5.06371 17.9612L5.71242 18.817C6.83353 20.2535 8.00647 21.6473 9.22891 22.9986Z" stroke="#E8BD67" stroke-width="2" stroke-linecap="round" stroke-linejoin="round"/>
<path d="M9.22888 12.6576C11.1225 12.6576 12.6576 11.1225 12.6576 9.22888C12.6576 7.33526 11.1225 5.80017 9.22888 5.80017C7.33526 5.80017 5.80017 7.33526 5.80017 9.22888C5.80017 11.1225 7.33526 12.6576 9.22888 12.6576Z" stroke="#E8BD67" stroke-width="2" stroke-linecap="round" stroke-linejoin="round"/>
</svg>
