<svg width="25" height="25" viewBox="0 0 25 25" fill="none" xmlns="http://www.w3.org/2000/svg">
<path d="M4.16667 7.29159C3.87153 7.29159 3.62396 7.19159 3.42396 6.99159C3.22396 6.79159 3.12431 6.54437 3.125 6.24992C3.125 5.95478 3.225 5.70721 3.425 5.50721C3.625 5.30721 3.87223 5.20756 4.16667 5.20826H20.8333C21.1285 5.20826 21.376 5.30826 21.576 5.50826C21.776 5.70826 21.8757 5.95548 21.875 6.24992C21.875 6.54506 21.775 6.79263 21.575 6.99263C21.375 7.19263 21.1278 7.29228 20.8333 7.29159H4.16667ZM4.16667 19.7916C3.87153 19.7916 3.62396 19.6916 3.42396 19.4916C3.22396 19.2916 3.12431 19.0444 3.125 18.7499C3.125 18.4548 3.225 18.2072 3.425 18.0072C3.625 17.8072 3.87223 17.7076 4.16667 17.7083H20.8333C21.1285 17.7083 21.376 17.8083 21.576 18.0083C21.776 18.2083 21.8757 18.4555 21.875 18.7499C21.875 19.0451 21.775 19.2926 21.575 19.4926C21.375 19.6926 21.1278 19.7923 20.8333 19.7916H4.16667ZM4.16667 13.5416C3.87153 13.5416 3.62396 13.4416 3.42396 13.2416C3.22396 13.0416 3.12431 12.7944 3.125 12.4999C3.125 12.2048 3.225 11.9572 3.425 11.7572C3.625 11.5572 3.87223 11.4576 4.16667 11.4583H20.8333C21.1285 11.4583 21.376 11.5583 21.576 11.7583C21.776 11.9583 21.8757 12.2055 21.875 12.4999C21.875 12.7951 21.775 13.0426 21.575 13.2426C21.375 13.4426 21.1278 13.5423 20.8333 13.5416H4.16667Z" fill="black" fill-opacity="0.8"/>
</svg>
