<svg width="21" height="21" viewBox="0 0 21 21" fill="none" xmlns="http://www.w3.org/2000/svg">
<path d="M14.4062 0.368164L13.8938 0.929883C12.7461 2.19316 11.8 2.75801 11.0125 3.12754C10.225 3.49629 9.56328 3.60645 8.91328 4.1041C8.22031 4.63535 7.21328 5.6541 6.78906 7.47285C5.87969 7.67129 5.21406 8.01973 4.68906 8.47363C4.17031 8.92207 3.77969 9.43223 3.29844 9.98769C3.29453 9.99395 3.30078 10.0057 3.29844 10.0119C2.60781 10.8057 2.00391 11.6604 0.832031 12.1119L0.34375 12.3072V20.6564H15.2367C16.0906 20.6104 16.6828 20.0189 17.043 19.4354C17.4023 18.8525 17.6016 18.2213 17.7023 17.7025C17.9617 16.3807 18.4344 12.5752 18.4344 12.5752L18.4594 12.5025V12.4291C18.4344 11.901 18.2172 11.4525 17.9461 11.0369L18.825 8.42519L20.2172 6.3252L20.6078 5.76348L20.0945 5.3002L14.968 0.856445L14.4062 0.368164ZM14.4555 2.5166L18.532 6.05723L17.4578 7.64316L17.3852 7.71738L17.3602 7.83926L16.6523 9.93848C16.2828 9.78613 15.9023 9.6791 15.4805 9.69473H15.4313L10.5 9.71895H9.71875V12.7463C9.60938 13.5979 9.13594 13.9275 8.54688 14.1627C8.35156 14.2416 8.32734 14.1986 8.15625 14.2354V9.69551C8.02812 6.79941 9.05937 5.96582 9.86562 5.34941C10.0883 5.17832 10.7406 4.98066 11.6719 4.54395C12.45 4.17754 13.4172 3.52051 14.4555 2.5166ZM6.64297 9.23066C6.63984 9.40801 6.58437 9.53301 6.59375 9.71895V15.9689H7.375C7.375 15.9689 8.21094 15.9596 9.10859 15.6025C10.0055 15.2455 11.0891 14.4096 11.2812 12.9416V11.2814L15.4805 11.2572H15.5047C15.8476 11.2384 16.1841 11.3563 16.4403 11.585C16.6965 11.8137 16.8517 12.1347 16.8719 12.4775C16.8687 12.49 16.8328 12.7799 16.8234 12.8439H13.625V14.4064H16.6281C16.5453 15.0104 16.4695 15.3893 16.3836 15.9689H13.625V17.5314H16.1398C16.0475 17.9094 15.8993 18.2715 15.7 18.6057C15.4867 18.9533 15.3031 19.0846 15.1391 19.0939H1.90625V13.2588C3.17266 12.5869 3.96016 11.6205 4.46953 11.0377C4.99766 10.433 5.36016 9.97519 5.71484 9.67051C5.94688 9.47207 6.31016 9.35879 6.64297 9.23066Z" fill="#E8BD67"/>
</svg>
