<svg width="23" height="23" viewBox="0 0 23 23" xmlns="http://www.w3.org/2000/svg">
<path d="M21.1645 2.48866C21.0778 2.4138 20.9723 2.36402 20.8595 2.3447C20.7466 2.32539 20.6305 2.33726 20.5239 2.37906L2.31617 9.50456C2.09471 9.59122 1.90734 9.74739 1.7822 9.94961C1.65706 10.1518 1.6009 10.3892 1.62217 10.6261C1.64344 10.8629 1.74097 11.0865 1.90013 11.2632C2.0593 11.4399 2.27149 11.5602 2.50485 11.606L7.36719 12.561V17.9687C7.36729 18.2194 7.44231 18.4644 7.58261 18.6722C7.72291 18.8799 7.9221 19.041 8.15461 19.1348C8.38711 19.2285 8.64234 19.2507 8.88752 19.1983C9.1327 19.146 9.35665 19.0216 9.53063 18.8411L11.9241 16.3587L15.6598 19.6335C15.8878 19.8354 16.1818 19.9469 16.4863 19.9471C16.6193 19.9468 16.7515 19.9259 16.878 19.8851C17.0856 19.8194 17.2723 19.7005 17.4195 19.5402C17.5667 19.3799 17.6694 19.1838 17.7172 18.9714L21.3666 3.10589C21.3923 2.99435 21.387 2.87793 21.3514 2.76916C21.3158 2.6604 21.2512 2.56341 21.1645 2.48866ZM2.69981 10.545C2.69637 10.5357 2.69637 10.5255 2.69981 10.5162C2.70387 10.5131 2.70842 10.5106 2.71328 10.509L17.0622 4.89198L7.78137 11.5404L2.71328 10.5485L2.69981 10.545ZM8.75438 18.0918C8.72961 18.1175 8.69776 18.1353 8.66288 18.1428C8.628 18.1503 8.59166 18.1473 8.55851 18.1341C8.52536 18.1209 8.49689 18.0981 8.47673 18.0686C8.45657 18.0392 8.44563 18.0044 8.44531 17.9687V13.3068L11.1128 15.6427L8.75438 18.0918ZM16.6669 18.7279C16.6603 18.7583 16.6456 18.7863 16.6244 18.8091C16.6033 18.8319 16.5763 18.8485 16.5465 18.8573C16.5161 18.868 16.4834 18.8703 16.4518 18.864C16.4201 18.8576 16.3908 18.8429 16.3668 18.8214L8.77235 12.1594L20.0352 4.08788L16.6669 18.7279Z" />
</svg>
