<svg width="20" height="20" viewBox="0 0 20 20" fill="none" xmlns="http://www.w3.org/2000/svg">
<g id="OBJECTS" clip-path="url(#clip0_1098_52)">
<path id="Vector" fill-rule="evenodd" clip-rule="evenodd" d="M19.9927 9.48905C19.9166 6.94084 18.8486 4.52303 17.0162 2.75061C15.1838 0.978194 12.7318 -0.00874986 10.1825 -4.24812e-06C7.66028 -0.0123716 5.23068 0.949305 3.40025 2.68454C1.56982 4.41978 0.479863 6.79461 0.357639 9.31385C0.357639 9.45253 0.357639 9.59853 0.357639 9.73722C0.354346 11.5128 0.839157 13.2551 1.7591 14.7737L-0.00732422 20L5.43063 18.2701C6.88429 19.0685 8.51665 19.4854 10.1752 19.4817C11.4599 19.4875 12.7331 19.2399 13.9221 18.7531C15.1111 18.2664 16.1924 17.55 17.1042 16.6449C18.0161 15.7399 18.7405 14.6639 19.2361 13.4786C19.7318 12.2933 19.9889 11.022 19.9927 9.73722C20 9.65693 20 9.57664 19.9927 9.48905ZM10.1825 17.9416C8.56835 17.9463 6.98883 17.474 5.64231 16.5839L2.46713 17.5912L3.49633 14.5474C2.47553 13.1542 1.92577 11.4717 1.92698 9.7445C1.92698 9.48173 1.92698 9.21167 1.92698 8.95619C2.13675 6.92355 3.09357 5.04112 4.61204 3.67369C6.13051 2.30625 8.10253 1.55116 10.146 1.55472C12.2147 1.55289 14.2087 2.32856 15.7324 3.72789C17.2561 5.12721 18.1983 7.04802 18.3722 9.10947C18.3722 9.32115 18.3722 9.53282 18.3722 9.7445C18.3608 11.9137 17.4944 13.9909 15.9612 15.5254C14.4281 17.06 12.3516 17.9282 10.1825 17.9416Z"/>
<path id="Vector_2" fill-rule="evenodd" clip-rule="evenodd" d="M14.6788 11.708C14.438 11.5912 13.219 10.9781 13.0365 10.9343C12.854 10.8905 12.6496 10.8102 12.489 11.0511C12.3285 11.2919 11.8686 11.8248 11.7591 11.9854C11.6496 12.146 11.4817 12.1606 11.2336 12.0438C10.5223 11.7672 9.86692 11.3641 9.29927 10.854C8.77249 10.3754 8.32203 9.81913 7.9635 9.20435C7.82481 8.97077 7.9635 8.83938 8.06569 8.7226C8.16788 8.60581 8.30656 8.43793 8.43065 8.29925L8.51824 8.18976C8.57664 8.10217 8.61313 8.01457 8.67153 7.90508C8.70604 7.83986 8.72409 7.76718 8.72409 7.6934C8.72409 7.61961 8.70604 7.54695 8.67153 7.48173C8.61313 7.36494 8.13138 6.18975 7.9416 5.70799C7.75182 5.22624 7.54014 5.31385 7.40146 5.31385C7.26277 5.31385 7.10218 5.31385 6.9416 5.31385C6.81959 5.31624 6.69943 5.34409 6.58882 5.39562C6.47821 5.44716 6.37958 5.52122 6.29927 5.6131C6.02856 5.86869 5.8141 6.17791 5.66957 6.52101C5.52504 6.86411 5.45361 7.23356 5.45985 7.60581C5.46428 7.88265 5.50602 8.15763 5.58394 8.42332C5.77162 9.01822 6.06053 9.57629 6.43795 10.073C6.56204 10.2335 8.10219 12.7226 10.5474 13.6861C12.9927 14.6496 13 14.3138 13.4671 14.2774C13.804 14.2147 14.1235 14.0806 14.4043 13.8842C14.685 13.6878 14.9205 13.4336 15.0949 13.1387C15.2495 12.7829 15.2976 12.3899 15.2336 12.0073C15.0803 11.8905 14.9562 11.8248 14.6788 11.708Z"/>
</g>
<defs>
<clipPath id="clip0_1098_52">
<rect width="20" height="20" fill="white"/>
</clipPath>
</defs>
</svg>
