<svg width="20" height="20" viewBox="0 0 20 20" fill="none" xmlns="http://www.w3.org/2000/svg">
<path d="M19.0059 3.62542L19.006 3.62542C18.7804 3.02633 18.4268 2.48368 17.9699 2.03534L17.9632 2.02875L17.9633 2.02868C17.5149 1.5718 16.9723 1.21819 16.3732 0.992512L16.3692 0.991009L16.3692 0.990992C15.7882 0.766436 15.116 0.606505 14.0989 0.559468L19.0059 3.62542ZM19.0059 3.62542L19.0075 3.62946M19.0059 3.62542L19.0075 3.62946M19.0075 3.62946C19.232 4.21051 19.392 4.88285 19.439 5.89999L19.0075 3.62946ZM5.89813 0.561074L5.89813 0.561069C4.88185 0.605131 4.21042 0.764956 3.6302 0.990613L3.62567 0.992376L3.62566 0.992354C3.02661 1.21865 2.48384 1.57235 2.03487 2.029L2.02895 2.03503L2.0289 2.03497C1.57228 2.48398 1.21861 3.02679 0.992322 3.6259L0.990975 3.62947L0.990961 3.62946C0.766419 4.21051 0.606498 4.88285 0.559463 5.89999L5.89813 0.561074ZM5.89813 0.561074L5.90026 0.560972M5.89813 0.561074L5.90026 0.560972M5.90026 0.560972C6.95415 0.510783 7.28611 0.5 9.99923 0.5C12.7123 0.5 13.0446 0.510779 14.0989 0.559466L5.90026 0.560972ZM0.560968 14.0993L0.561069 14.1014C0.605123 15.1178 0.764938 15.7893 0.990582 16.3696L0.992321 16.374L0.9923 16.374C1.21891 16.9738 1.57271 17.5157 2.02919 17.9653L2.03463 17.9707L2.03459 17.9707C2.48392 18.427 3.02736 18.781 3.62608 19.0078L3.62923 19.009C4.21014 19.2335 4.8823 19.3935 5.89912 19.4405C6.95397 19.4877 7.28709 19.5 9.99923 19.5C12.7117 19.5 13.0443 19.4877 14.0989 19.439L14.1003 19.4389C15.1166 19.3949 15.788 19.235 16.3683 19.0094L16.369 19.0091C16.9686 18.777 17.5141 18.4223 17.968 17.9681C18.4205 17.5141 18.7759 16.9684 19.0076 16.3703C19.2321 15.7893 19.392 15.117 19.439 14.1C19.439 14.1 19.439 14.1 19.439 14.1L19.9385 14.1231C19.9877 13.0569 20 12.7154 20 10L0.560968 14.0993ZM0.560968 14.0993C0.510782 13.0453 0.5 12.7133 0.5 10C0.5 7.28677 0.510778 6.95441 0.559462 5.90002L0.560968 14.0993ZM4.18819 18.6343L4.18683 18.6339C3.46853 18.416 2.87432 18.1073 2.27263 17.4374C1.67072 16.7689 1.48292 16.1968 1.33034 15.6904C1.15853 15.1219 1.1091 14.3969 1.06963 13.5075C1.03517 12.7773 1.03527 12.4381 1.03834 11.1763V8.82371C1.03527 7.56192 1.03517 7.22268 1.06963 6.49251C1.10909 5.60335 1.1585 4.87849 1.33019 4.31013C1.48194 3.80106 1.67161 3.2318 2.27241 2.56283C2.87418 1.89279 3.46845 1.58406 4.18683 1.36614L4.18819 1.36573C4.9088 1.14937 5.78994 1.10607 6.48598 1.07436L6.48672 1.07433C7.30074 1.03846 7.63186 1.03846 9.30707 1.03846H9.31775H11.1339C11.9246 1.02678 12.7155 1.03718 13.5056 1.06965L13.5073 1.06972C14.3973 1.10928 15.1208 1.16036 15.6895 1.33012L15.6912 1.33062C16.1963 1.4833 16.766 1.67106 17.4354 2.27221C18.1073 2.8742 18.4164 3.46906 18.6329 4.19008M4.18819 18.6343L11.2582 18.4617C12.454 18.4631 12.7821 18.4635 13.4851 18.4308L13.5082 18.9302C13.5082 18.9302 13.5083 18.9302 13.5084 18.9302C14.3965 18.8892 15.1207 18.8397 15.6895 18.6699L15.6912 18.6694C16.1967 18.5166 16.7679 18.3272 17.4358 17.7274L17.4359 17.7274C18.1062 17.1253 18.4147 16.5292 18.6325 15.8113L18.6328 15.8102C18.8492 15.0909 18.8925 14.2095 18.9242 13.5135L18.9243 13.5128C18.9601 12.6987 18.9601 12.3692 18.9601 10.6986V10.6877V9.31846V9.30751C18.9601 7.63239 18.9601 7.3028 18.9243 6.48726L18.9242 6.48648C18.8925 5.79063 18.8493 4.90934 18.6329 4.19008M4.18819 18.6343C4.90904 18.8507 5.7908 18.8924 6.48576 18.9241C7.30024 18.9615 7.63185 18.9615 9.3065 18.9615H9.31775H11.137H11.1376L4.18819 18.6343ZM18.6329 4.19008L18.154 4.33385M18.6329 4.19008C18.6328 4.18997 18.6328 4.18987 18.6328 4.18977L18.154 4.33385M18.154 4.33385C18.3494 4.98308 18.3924 5.8 18.4247 6.50923L17.1018 2.64462C17.6925 3.17385 17.9586 3.68308 18.154 4.33385ZM9.99923 6.03846C8.94862 6.03846 7.94105 6.45585 7.19817 7.19878C6.4553 7.94172 6.03796 8.94935 6.03796 10C6.03796 11.0507 6.4553 12.0583 7.19817 12.8012C7.94105 13.5442 8.94862 13.9615 9.99923 13.9615C11.0498 13.9615 12.0574 13.5442 12.8003 12.8012C13.5432 12.0583 13.9605 11.0507 13.9605 10C13.9605 8.94935 13.5432 7.94172 12.8003 7.19878C12.0574 6.45585 11.0498 6.03846 9.99923 6.03846ZM5.49962 10C5.49962 8.80651 5.97369 7.66192 6.81754 6.81801C7.66138 5.9741 8.80587 5.5 9.99923 5.5C11.1926 5.5 12.3371 5.9741 13.1809 6.81801C14.0248 7.66192 14.4988 8.80651 14.4988 10C14.4988 11.1935 14.0248 12.3381 13.1809 13.182C12.3371 14.0259 11.1926 14.5 9.99923 14.5C8.80587 14.5 7.66138 14.0259 6.81754 13.182C5.97369 12.3381 5.49962 11.1935 5.49962 10ZM15.7995 5.12389C15.6769 5.24651 15.5107 5.31538 15.3373 5.31538C15.1639 5.31538 14.9976 5.24651 14.875 5.12389C14.7524 5.00128 14.6835 4.83496 14.6835 4.66154C14.6835 4.48811 14.7524 4.3218 14.875 4.19919C14.9976 4.07657 15.1639 4.00769 15.3373 4.00769C15.5107 4.00769 15.6769 4.07657 15.7995 4.19919L16.1531 3.84565L15.7995 4.19919C15.9222 4.3218 15.991 4.48812 15.991 4.66154C15.991 4.83496 15.9222 5.00127 15.7995 5.12389L16.1531 5.47743L15.7995 5.12389Z" stroke="black" stroke-opacity="0.8"/>
</svg>
