<svg width="68" height="69" viewBox="0 0 68 69" fill="none" xmlns="http://www.w3.org/2000/svg">
<path d="M46.7081 10.6341V10.6341C46.7081 5.86564 42.8424 2 38.0739 2H26.9447C22.1762 2 18.3106 5.86564 18.3106 10.6341V10.6341" stroke="#E8BD67" stroke-width="3"/>
<path d="M56.7651 15.3721C61.7619 15.3721 65.8127 19.4228 65.8127 24.4196L65.8127 58.3672C65.8127 63.364 61.7619 67.4147 56.7651 67.4147L10.5476 67.4147C5.55072 67.4147 1.49999 63.364 1.49999 58.3672L1.49999 24.4196C1.49999 19.4228 5.55073 15.3721 10.5476 15.3721L56.7651 15.3721Z" stroke="#E8BD67" stroke-width="3"/>
<path d="M33.4486 31.7935L33.4485 49.4875" stroke="#E8BD67" stroke-width="3" stroke-linecap="round"/>
<path d="M42.856 39.5154L24.0429 39.5154" stroke="#E8BD67" stroke-width="3" stroke-linecap="round"/>
</svg>
