<svg width="50" height="66" viewBox="0 0 50 66" fill="none" xmlns="http://www.w3.org/2000/svg">
<path d="M30.9002 2.16673L30.9005 2.167L46.9042 18.3121C46.9043 18.3121 46.9043 18.3122 46.9044 18.3122C47.9599 19.3781 48.5537 20.824 48.5541 22.3328C48.5541 22.3328 48.5541 22.3328 48.5541 22.3329V57.75C48.5541 59.8069 47.7443 61.7786 46.3043 63.2317C44.8645 64.6846 42.9126 65.5 40.8784 65.5H8.17568C6.14143 65.5 4.18957 64.6846 2.74975 63.2317C1.30977 61.7786 0.5 59.8069 0.5 57.75V8.25C0.5 6.19312 1.30977 4.22139 2.74975 2.76832C4.18957 1.31541 6.14143 0.5 8.17568 0.5H26.9223C28.4139 0.501386 29.8448 1.10036 30.9002 2.16673ZM45.4662 24.75V24.25H44.9662H30.6588C29.1666 24.25 27.7346 23.6519 26.6781 22.5858C25.6215 21.5195 25.027 20.0724 25.027 18.5625V4.125V3.625H24.527H8.17568C6.95744 3.625 5.79002 4.11338 4.92999 4.98123C4.07011 5.84893 3.58784 7.02483 3.58784 8.25V57.75C3.58784 58.9752 4.07011 60.1511 4.92999 61.0188C5.79002 61.8866 6.95744 62.375 8.17568 62.375H40.8784C42.0966 62.375 43.264 61.8866 44.1241 61.0188C44.9839 60.1511 45.4662 58.9752 45.4662 57.75V24.75ZM44.12 21.125H45.3195L44.4752 20.2731L28.97 4.62692L28.1149 3.764V4.97888V18.5625C28.1149 19.2407 28.3818 19.892 28.8584 20.3729C29.3351 20.8539 29.9826 21.125 30.6588 21.125H44.12ZM9.12948 33.956C9.41937 33.6635 9.81159 33.5 10.2196 33.5H24.527H38.8345C39.2425 33.5 39.6347 33.6635 39.9246 33.956C40.2146 34.2487 40.3784 34.6466 40.3784 35.0625C40.3784 35.4784 40.2146 35.8763 39.9246 36.169C39.6347 36.4615 39.2425 36.625 38.8345 36.625H10.2196C9.81159 36.625 9.41937 36.4615 9.12948 36.169C8.83943 35.8763 8.67568 35.4784 8.67568 35.0625C8.67568 34.6466 8.83943 34.2487 9.12948 33.956ZM9.12948 42.206C9.41937 41.9135 9.81159 41.75 10.2196 41.75H38.8345C39.2425 41.75 39.6347 41.9135 39.9246 42.206C40.2146 42.4987 40.3784 42.8966 40.3784 43.3125C40.3784 43.7284 40.2146 44.1263 39.9246 44.419C39.6347 44.7115 39.2425 44.875 38.8345 44.875H10.2196C9.81159 44.875 9.41937 44.7115 9.12948 44.419C8.83943 44.1263 8.67568 43.7284 8.67568 43.3125C8.67568 42.8966 8.83943 42.4987 9.12948 42.206ZM9.12948 50.456C9.41937 50.1635 9.81159 50 10.2196 50H38.8345C39.2425 50 39.6347 50.1635 39.9246 50.456C40.2146 50.7487 40.3784 51.1466 40.3784 51.5625C40.3784 51.9784 40.2146 52.3763 39.9246 52.669C39.6347 52.9615 39.2425 53.125 38.8345 53.125H10.2196C9.81159 53.125 9.41937 52.9615 9.12948 52.669C8.83943 52.3763 8.67568 51.9784 8.67568 51.5625C8.67568 51.1466 8.83943 50.7487 9.12948 50.456Z" fill="#E8BD67" stroke="white"/>
</svg>
