<svg width="69" height="70" viewBox="0 0 69 70" fill="none" xmlns="http://www.w3.org/2000/svg">
<path d="M34.368 68.1019H5.28528C4.41397 68.1019 3.57835 67.7558 2.96224 67.1397C2.34613 66.5236 2 65.6879 2 64.8166V16.5823C1.99948 16.021 2.1194 15.4661 2.35168 14.9551C2.58395 14.4441 2.92317 13.9889 3.34643 13.6202L15.615 2.95651C16.3246 2.33969 17.2331 2 18.1733 2C19.1134 2 20.0219 2.33969 20.7315 2.95651L32.9947 13.6121C33.4186 13.9844 33.758 14.4429 33.9902 14.957C34.2224 15.4711 34.3421 16.029 34.3411 16.5931L34.368 68.1019Z" stroke="#E8BD67" stroke-width="2.98285" stroke-miterlimit="10"/>
<path d="M63.7308 68.1019H34.6292V16.2027C34.6308 15.7587 34.7279 15.3202 34.9137 14.9169C35.0995 14.5136 35.3699 14.155 35.7064 13.8653L48.2496 2.96463C48.963 2.34477 49.8763 2.00342 50.8213 2.00342C51.7664 2.00342 52.6796 2.34477 53.393 2.96463L65.6535 13.6202C66.0772 13.9886 66.4167 14.4437 66.649 14.9548C66.8813 15.4659 67.001 16.021 66.9999 16.5824V64.8436C67 65.2724 66.9153 65.697 66.7509 66.093C66.5865 66.489 66.3455 66.8487 66.0418 67.1514C65.7381 67.4541 65.3776 67.6939 64.9811 67.857C64.5845 68.0201 64.1596 68.1034 63.7308 68.1019Z" stroke="#E8BD67" stroke-width="2.98285" stroke-miterlimit="10"/>
<path d="M23.7286 50.4961H45.8396C46.4824 50.4961 47.0988 50.7514 47.5533 51.2059C48.0078 51.6604 48.2632 52.2769 48.2632 52.9197V68.0912H21.2781V52.9466C21.2781 52.2967 21.5363 51.6734 21.9959 51.2138C22.4554 50.7543 23.0787 50.4961 23.7286 50.4961Z" stroke="#E8BD67" stroke-width="2.98285" stroke-miterlimit="10"/>
<path d="M18.7361 26.4975C20.6694 26.4975 22.2368 24.9302 22.2368 22.9968C22.2368 21.0634 20.6694 19.4961 18.7361 19.4961C16.8027 19.4961 15.2354 21.0634 15.2354 22.9968C15.2354 24.9302 16.8027 26.4975 18.7361 26.4975Z" fill="#E8BD67"/>
<path d="M18.7361 41.257C20.6694 41.257 22.2368 39.6897 22.2368 37.7563C22.2368 35.8229 20.6694 34.2556 18.7361 34.2556C16.8027 34.2556 15.2354 35.8229 15.2354 37.7563C15.2354 39.6897 16.8027 41.257 18.7361 41.257Z" fill="#E8BD67"/>
<path d="M50.1346 26.4975C52.068 26.4975 53.6353 24.9302 53.6353 22.9968C53.6353 21.0634 52.068 19.4961 50.1346 19.4961C48.2012 19.4961 46.6339 21.0634 46.6339 22.9968C46.6339 24.9302 48.2012 26.4975 50.1346 26.4975Z" fill="#E8BD67"/>
<path d="M50.1346 41.257C52.068 41.257 53.6353 39.6897 53.6353 37.7563C53.6353 35.8229 52.068 34.2556 50.1346 34.2556C48.2012 34.2556 46.6339 35.8229 46.6339 37.7563C46.6339 39.6897 48.2012 41.257 50.1346 41.257Z" fill="#E8BD67"/>
</svg>
