<svg width="78" height="71" viewBox="0 0 78 71" fill="none" xmlns="http://www.w3.org/2000/svg">
<path d="M7.13602 56.8544C7.14322 56.8376 7.14997 56.8206 7.15624 56.8034C7.56027 55.6969 7.40436 54.4524 6.73274 53.4854C3.0849 48.2327 1 42.0552 1 35.4589C1 17.0644 17.478 1.45898 38.6781 1.45898C59.8782 1.45898 76.3562 17.0644 76.3562 35.4589C76.3562 53.8533 59.8782 69.4587 38.6781 69.4587H38.6763L38.668 69.4587L38.6663 69.4587C32.4569 69.4804 26.3214 68.0751 20.7093 65.3455C20.0393 65.0196 19.2837 64.9226 18.554 65.0711C18.5519 65.0715 18.5499 65.0719 18.5479 65.0723L2.26533 68.2176L7.13602 56.8544Z" fill="#FEFFFF" stroke="#E8BD67" stroke-width="2" stroke-linecap="round" stroke-linejoin="round"/>
<path d="M58.9157 36.2879C58.9157 38.6436 57.0771 40.5532 54.8091 40.5532C52.5412 40.5532 50.7026 38.6436 50.7026 36.2879C50.7026 33.9322 52.5412 32.0226 54.8091 32.0226C57.0771 32.0226 58.9157 33.9322 58.9157 36.2879Z" fill="#E8BD67"/>
<path d="M42.4896 36.2879C42.4896 38.6436 40.651 40.5532 38.3831 40.5532C36.1151 40.5532 34.2766 38.6436 34.2766 36.2879C34.2766 33.9322 36.1151 32.0226 38.3831 32.0226C40.651 32.0226 42.4896 33.9322 42.4896 36.2879Z" fill="#E8BD67"/>
<path d="M26.0635 36.2879C26.0635 38.6436 24.225 40.5532 21.957 40.5532C19.6891 40.5532 17.8505 38.6436 17.8505 36.2879C17.8505 33.9322 19.6891 32.0226 21.957 32.0226C24.225 32.0226 26.0635 33.9322 26.0635 36.2879Z" fill="#E8BD67"/>
</svg>
