<svg width="71" height="59" viewBox="0 0 71 59" fill="none" xmlns="http://www.w3.org/2000/svg">
<path d="M35.3496 42.2001C35.3496 50.1288 42.8985 56.5572 52.2081 56.5572C54.9642 56.5662 57.6874 55.9843 60.1783 54.8541L69.0665 56.5572L66.4534 49.8812C68.1074 47.6594 69.0665 45.0249 69.0665 42.2001C69.0665 34.2714 61.5176 27.843 52.2081 27.843C42.8985 27.843 35.3496 34.2714 35.3496 42.2001Z" stroke="#E8BD67" stroke-width="3" stroke-linecap="round" stroke-linejoin="round"/>
<path d="M15.5477 24.0142H15.5755M26.6796 24.0142H26.7074M37.8115 24.0142H37.8393M51.7264 24.0142C51.7264 36.1716 40.511 46.0284 26.6796 46.0284C22.5848 46.0422 18.5388 45.1499 14.838 43.417L1.63281 46.0284L5.51506 35.7918C3.0577 32.3851 1.63281 28.3455 1.63281 24.0142C1.63281 11.8569 12.8482 2 26.6796 2C40.511 2 51.7264 11.8569 51.7264 24.0142Z" stroke="#E8BD67" stroke-width="3" stroke-linecap="round" stroke-linejoin="round"/>
<path d="M15.5477 24.0142H15.5755H15.5477ZM26.6796 24.0142H26.7074H26.6796ZM37.8115 24.0142H37.8393H37.8115ZM51.7264 24.0142C51.7264 36.1716 40.511 46.0284 26.6796 46.0284C22.5848 46.0422 18.5388 45.1499 14.838 43.417L1.63281 46.0284L5.51506 35.7918C3.0577 32.3851 1.63281 28.3455 1.63281 24.0142C1.63281 11.8569 12.8482 2 26.6796 2C40.511 2 51.7264 11.8569 51.7264 24.0142Z" fill="white"/>
<path d="M15.5477 24.0142H15.5755M26.6796 24.0142H26.7074M37.8115 24.0142H37.8393M51.7264 24.0142C51.7264 36.1716 40.511 46.0284 26.6796 46.0284C22.5848 46.0422 18.5388 45.1499 14.838 43.417L1.63281 46.0284L5.51506 35.7918C3.0577 32.3851 1.63281 28.3455 1.63281 24.0142C1.63281 11.8569 12.8482 2 26.6796 2C40.511 2 51.7264 11.8569 51.7264 24.0142Z" stroke="#E8BD67" stroke-width="3" stroke-linecap="round" stroke-linejoin="round"/>
</svg>
